<svg xmlns="http://www.w3.org/2000/svg" width="48.365" height="47.271" id="microsoft-access">
  <path fill="#a33639" d="M25.284 0h3.287v4.793c5.31-.676 10.861-.627 15.956 1.176 1.918.654 4.007 2.149 3.82 4.436q.033 12.672 0 25.356c.193 2.314-1.952 3.8-3.892 4.447a34.924 34.924 0 0 1-15.885 1.143v5.92h-3.423C16.776 45.743 8.382 44.346 0 42.873V4.408C8.426 2.935 16.864 1.5 25.284 0Z"></path>
  <path fill="#fff" d="M28.571 6.464a34.622 34.622 0 0 1 14.792.8c1.313.489 3.072 1.077 3.369 2.644-.22 1.281-1.555 1.858-2.611 2.32a33.252 33.252 0 0 1-15.55 1.061Z"></path>
  <path fill="#fff" d="M39.828 15.016c2.418-.357 4.941-.879 6.9-2.451-.12 2.364.187 4.754-.165 7.1a7.6 7.6 0 0 1-3.952 1.99 39.382 39.382 0 0 1-14.039.511v-7.128a44.084 44.084 0 0 0 11.257-.022Zm-28.61-.566c1.281-.093 2.556-.181 3.842-.28 1.842 6.156 3.589 12.345 5.409 18.507-1.27-.083-2.539-.176-3.8-.291q-.507-2.064-1.055-4.117-2.53-.013-5.057-.142-.486 1.951-.989 3.9-1.61-.123-3.221-.231c1.605-5.788 3.276-11.554 4.87-17.342Z"></path>
  <path fill="#a33639" d="M11.246 25.158c.555-2.573 1.38-5.085 1.748-7.7.495 2.605 1.258 5.145 1.885 7.717q-1.822-.003-3.633-.017Z"></path>
  <path fill="#fff" d="M39.861 23.806c2.413-.357 4.92-.879 6.865-2.446-.11 2.358.171 4.738-.154 7.08-.962 1.176-2.523 1.594-3.925 2a39.483 39.483 0 0 1-14.077.527v-7.134a43.864 43.864 0 0 0 11.291-.027Zm-.022 8.795c2.418-.352 4.93-.879 6.887-2.446-.116 2.358.182 4.749-.165 7.091-1.555 1.693-4.023 2.006-6.162 2.44a40.389 40.389 0 0 1-11.85.044c.038-2.369.022-4.732.022-7.1a43.734 43.734 0 0 0 11.268-.028Z"></path>
</svg>
